<?xml version="1.0" standalone="no"?>
<!DOCTYPE svg PUBLIC "-//W3C//DTD SVG 20010904//EN"
 "http://www.w3.org/TR/2001/REC-SVG-20010904/DTD/svg10.dtd">
<svg version="1.0" xmlns="http://www.w3.org/2000/svg"
 width="512.000000pt" height="512.000000pt" viewBox="0 0 512.000000 512.000000"
 preserveAspectRatio="xMidYMid meet">
<metadata>
Created by potrace 1.11, written by Peter Selinger 2001-2013
</metadata>
<g transform="translate(0.000000,512.000000) scale(0.100000,-0.100000)"
fill="#000000" stroke="none">
<path d="M0 2560 l0 -2560 2560 0 2560 0 0 2560 0 2560 -2560 0 -2560 0 0
-2560z m1900 343 c0 -715 -3 -884 -15 -958 -49 -304 -184 -484 -418 -562 -74
-24 -96 -27 -232 -27 -144 0 -154 1 -245 32 -104 36 -163 67 -228 120 -30 23
-41 39 -37 50 5 13 67 115 141 230 1 2 30 -19 65 -45 106 -81 191 -112 300
-113 127 0 232 62 286 170 62 122 63 145 63 1106 l0 864 160 0 160 0 0 -867z
m2047 -266 c249 -622 455 -1139 458 -1148 4 -12 -26 -28 -140 -73 -80 -32
-147 -57 -149 -55 -2 2 -62 155 -134 339 l-130 335 -550 3 -550 2 -107 -272
c-59 -150 -119 -301 -132 -335 -14 -35 -30 -63 -35 -63 -25 0 -268 105 -264
115 20 52 875 2158 898 2213 l30 72 176 0 177 0 452 -1133z"/>
<path d="M3296 3432 c-10 -16 -436 -1104 -436 -1114 0 -4 198 -8 440 -8 242 0
440 3 440 7 0 7 -430 1116 -435 1121 -2 2 -6 -1 -9 -6z"/>
</g>
</svg>
